<svg width="900" height="220" viewBox="0 0 900 220" xmlns="http://www.w3.org/2000/svg">
  <defs>
    <linearGradient id="bg" x1="0" y1="0" x2="1" y2="1">
      <stop offset="0%" stop-color="#120E1E"/>
      <stop offset="100%" stop-color="#1B1330"/>
    </linearGradient>
    <linearGradient id="art" x1="0" y1="0" x2="1" y2="1">
      <stop offset="0%" stop-color="#8B5CF6"/>
      <stop offset="100%" stop-color="#38D6C2"/>
    </linearGradient>
  </defs>
  <rect x="1" y="1" width="898" height="218" rx="18" fill="url(#bg)" stroke="#2c2444" stroke-width="1"/>

  <rect x="24" y="24" width="172" height="172" rx="14" fill="url(#art)"/>
  <text x="110.0" y="118.0" text-anchor="middle" font-family="'Segoe UI', sans-serif" font-size="34" font-weight="700" fill="#120E1E" opacity="0.85">MJ</text>

  <text x="212" y="66" font-family="'Segoe UI', sans-serif" font-size="26" font-weight="700" fill="#F1EAFB">Ruhanix Bus Booking</text>
  <text x="212" y="92" font-family="'Segoe UI', sans-serif" font-size="14" fill="#9C90C4">Now Building &#183; Live Commit Pulse</text>

  <rect x="200.0" y="174.0" width="6.8" height="6.0" rx="3.4" fill="rgb(139,92,246)"/><rect x="211.0" y="162.9" width="6.8" height="17.1" rx="3.4" fill="rgb(137,94,245)"/><rect x="222.0" y="145.7" width="6.8" height="34.3" rx="3.4" fill="rgb(136,96,244)"/><rect x="233.0" y="174.0" width="6.8" height="6.0" rx="3.4" fill="rgb(134,98,243)"/><rect x="244.0" y="174.0" width="6.8" height="6.0" rx="3.4" fill="rgb(133,100,242)"/><rect x="255.0" y="174.0" width="6.8" height="6.0" rx="3.4" fill="rgb(131,102,241)"/><rect x="266.0" y="174.0" width="6.8" height="6.0" rx="3.4" fill="rgb(130,104,240)"/><rect x="277.0" y="174.0" width="6.8" height="6.0" rx="3.4" fill="rgb(129,106,239)"/><rect x="288.0" y="174.0" width="6.8" height="6.0" rx="3.4" fill="rgb(127,108,238)"/><rect x="299.0" y="174.0" width="6.8" height="6.0" rx="3.4" fill="rgb(126,110,238)"/><rect x="310.0" y="174.0" width="6.8" height="6.0" rx="3.4" fill="rgb(124,112,237)"/><rect x="321.0" y="174.0" width="6.8" height="6.0" rx="3.4" fill="rgb(123,114,236)"/><rect x="332.0" y="174.0" width="6.8" height="6.0" rx="3.4" fill="rgb(122,116,235)"/><rect x="343.0" y="174.0" width="6.8" height="6.0" rx="3.4" fill="rgb(120,118,234)"/><rect x="354.0" y="174.0" width="6.8" height="6.0" rx="3.4" fill="rgb(119,120,233)"/><rect x="365.0" y="174.0" width="6.8" height="6.0" rx="3.4" fill="rgb(117,123,232)"/><rect x="376.0" y="174.0" width="6.8" height="6.0" rx="3.4" fill="rgb(116,125,231)"/><rect x="387.0" y="174.0" width="6.8" height="6.0" rx="3.4" fill="rgb(115,127,231)"/><rect x="398.0" y="174.0" width="6.8" height="6.0" rx="3.4" fill="rgb(113,129,230)"/><rect x="409.0" y="174.0" width="6.8" height="6.0" rx="3.4" fill="rgb(112,131,229)"/><rect x="420.0" y="174.0" width="6.8" height="6.0" rx="3.4" fill="rgb(110,133,228)"/><rect x="431.0" y="174.0" width="6.8" height="6.0" rx="3.4" fill="rgb(109,135,227)"/><rect x="442.0" y="174.0" width="6.8" height="6.0" rx="3.4" fill="rgb(108,137,226)"/><rect x="453.0" y="174.0" width="6.8" height="6.0" rx="3.4" fill="rgb(106,139,225)"/><rect x="464.0" y="162.9" width="6.8" height="17.1" rx="3.4" fill="rgb(105,141,224)"/><rect x="475.0" y="174.0" width="6.8" height="6.0" rx="3.4" fill="rgb(103,143,223)"/><rect x="486.0" y="174.0" width="6.8" height="6.0" rx="3.4" fill="rgb(102,145,223)"/><rect x="497.0" y="174.0" width="6.8" height="6.0" rx="3.4" fill="rgb(101,147,222)"/><rect x="508.0" y="174.0" width="6.8" height="6.0" rx="3.4" fill="rgb(99,149,221)"/><rect x="519.0" y="174.0" width="6.8" height="6.0" rx="3.4" fill="rgb(98,151,220)"/><rect x="530.0" y="174.0" width="6.8" height="6.0" rx="3.4" fill="rgb(96,154,219)"/><rect x="541.0" y="174.0" width="6.8" height="6.0" rx="3.4" fill="rgb(95,156,218)"/><rect x="552.0" y="174.0" width="6.8" height="6.0" rx="3.4" fill="rgb(93,158,217)"/><rect x="563.0" y="174.0" width="6.8" height="6.0" rx="3.4" fill="rgb(92,160,216)"/><rect x="574.0" y="174.0" width="6.8" height="6.0" rx="3.4" fill="rgb(91,162,216)"/><rect x="585.0" y="174.0" width="6.8" height="6.0" rx="3.4" fill="rgb(89,164,215)"/><rect x="596.0" y="174.0" width="6.8" height="6.0" rx="3.4" fill="rgb(88,166,214)"/><rect x="607.0" y="174.0" width="6.8" height="6.0" rx="3.4" fill="rgb(86,168,213)"/><rect x="618.0" y="174.0" width="6.8" height="6.0" rx="3.4" fill="rgb(85,170,212)"/><rect x="629.0" y="174.0" width="6.8" height="6.0" rx="3.4" fill="rgb(84,172,211)"/><rect x="640.0" y="174.0" width="6.8" height="6.0" rx="3.4" fill="rgb(82,174,210)"/><rect x="651.0" y="174.0" width="6.8" height="6.0" rx="3.4" fill="rgb(81,176,209)"/><rect x="662.0" y="174.0" width="6.8" height="6.0" rx="3.4" fill="rgb(79,178,208)"/><rect x="673.0" y="174.0" width="6.8" height="6.0" rx="3.4" fill="rgb(78,180,208)"/><rect x="684.0" y="174.0" width="6.8" height="6.0" rx="3.4" fill="rgb(77,182,207)"/><rect x="695.0" y="174.0" width="6.8" height="6.0" rx="3.4" fill="rgb(75,185,206)"/><rect x="706.0" y="174.0" width="6.8" height="6.0" rx="3.4" fill="rgb(74,187,205)"/><rect x="717.0" y="174.0" width="6.8" height="6.0" rx="3.4" fill="rgb(72,189,204)"/><rect x="728.0" y="171.4" width="6.8" height="8.6" rx="3.4" fill="rgb(71,191,203)"/><rect x="739.0" y="145.7" width="6.8" height="34.3" rx="3.4" fill="rgb(70,193,202)"/><rect x="750.0" y="154.3" width="6.8" height="25.7" rx="3.4" fill="rgb(68,195,201)"/><rect x="761.0" y="120.0" width="6.8" height="60.0" rx="3.4" fill="rgb(67,197,201)"/><rect x="772.0" y="171.4" width="6.8" height="8.6" rx="3.4" fill="rgb(65,199,200)"/><rect x="783.0" y="171.4" width="6.8" height="8.6" rx="3.4" fill="rgb(64,201,199)"/><rect x="794.0" y="60.0" width="6.8" height="120.0" rx="3.4" fill="rgb(63,203,198)"/><rect x="805.0" y="174.0" width="6.8" height="6.0" rx="3.4" fill="rgb(61,205,197)"/><rect x="816.0" y="154.3" width="6.8" height="25.7" rx="3.4" fill="rgb(60,207,196)"/><rect x="827.0" y="60.0" width="6.8" height="120.0" rx="3.4" fill="rgb(58,209,195)"/><rect x="838.0" y="128.6" width="6.8" height="51.4" rx="3.4" fill="rgb(57,211,194)"/><rect x="849.0" y="174.0" width="6.8" height="6.0" rx="3.4" fill="rgb(56,214,194)"/>

  <text x="860" y="204" text-anchor="end" font-family="'Segoe UI', sans-serif" font-size="11" fill="#6C6291">62 commits &#183; last 60 days</text>
</svg>