<svg width="900" height="220" viewBox="0 0 900 220" xmlns="http://www.w3.org/2000/svg">
  <defs>
    <linearGradient id="bg" x1="0" y1="0" x2="1" y2="1">
      <stop offset="0%" stop-color="#151125"/>
      <stop offset="100%" stop-color="#211B36"/>
    </linearGradient>
    <linearGradient id="art" x1="0" y1="0" x2="1" y2="1">
      <stop offset="0%" stop-color="#FFB86B"/>
      <stop offset="100%" stop-color="#6EE7B7"/>
    </linearGradient>
  </defs>
  <rect x="1" y="1" width="898" height="218" rx="18" fill="url(#bg)" stroke="#3A2F52" stroke-width="1"/>

  <rect x="24" y="24" width="172" height="172" rx="14" fill="url(#art)"/>
  <text x="110.0" y="118.0" text-anchor="middle" font-family="'Segoe UI', sans-serif" font-size="34" font-weight="700" fill="#151125" opacity="0.85">MJ</text>

  <text x="212" y="66" font-family="'Segoe UI', sans-serif" font-size="18" font-weight="700" fill="#F5EFE6">Open to new opportunities</text>
  <text x="212" y="92" font-family="'Segoe UI', sans-serif" font-size="14" fill="#A79BB8">Now Building &#183; Live Commit Pulse</text>

  <rect x="340.0" y="162.9" width="5.4" height="17.1" rx="2.7" fill="rgb(255,184,107)"/><rect x="348.7" y="145.7" width="5.4" height="34.3" rx="2.7" fill="rgb(252,184,108)"/><rect x="357.3" y="174.0" width="5.4" height="6.0" rx="2.7" fill="rgb(250,185,109)"/><rect x="366.0" y="174.0" width="5.4" height="6.0" rx="2.7" fill="rgb(247,186,110)"/><rect x="374.7" y="174.0" width="5.4" height="6.0" rx="2.7" fill="rgb(245,187,112)"/><rect x="383.3" y="174.0" width="5.4" height="6.0" rx="2.7" fill="rgb(242,187,113)"/><rect x="392.0" y="174.0" width="5.4" height="6.0" rx="2.7" fill="rgb(240,188,114)"/><rect x="400.7" y="174.0" width="5.4" height="6.0" rx="2.7" fill="rgb(237,189,116)"/><rect x="409.3" y="174.0" width="5.4" height="6.0" rx="2.7" fill="rgb(235,190,117)"/><rect x="418.0" y="174.0" width="5.4" height="6.0" rx="2.7" fill="rgb(232,191,118)"/><rect x="426.7" y="174.0" width="5.4" height="6.0" rx="2.7" fill="rgb(230,191,119)"/><rect x="435.3" y="174.0" width="5.4" height="6.0" rx="2.7" fill="rgb(227,192,121)"/><rect x="444.0" y="174.0" width="5.4" height="6.0" rx="2.7" fill="rgb(225,193,122)"/><rect x="452.7" y="174.0" width="5.4" height="6.0" rx="2.7" fill="rgb(223,194,123)"/><rect x="461.3" y="174.0" width="5.4" height="6.0" rx="2.7" fill="rgb(220,195,125)"/><rect x="470.0" y="174.0" width="5.4" height="6.0" rx="2.7" fill="rgb(218,195,126)"/><rect x="478.7" y="174.0" width="5.4" height="6.0" rx="2.7" fill="rgb(215,196,127)"/><rect x="487.3" y="174.0" width="5.4" height="6.0" rx="2.7" fill="rgb(213,197,128)"/><rect x="496.0" y="174.0" width="5.4" height="6.0" rx="2.7" fill="rgb(210,198,130)"/><rect x="504.7" y="174.0" width="5.4" height="6.0" rx="2.7" fill="rgb(208,199,131)"/><rect x="513.3" y="174.0" width="5.4" height="6.0" rx="2.7" fill="rgb(205,199,132)"/><rect x="522.0" y="174.0" width="5.4" height="6.0" rx="2.7" fill="rgb(203,200,134)"/><rect x="530.7" y="174.0" width="5.4" height="6.0" rx="2.7" fill="rgb(200,201,135)"/><rect x="539.3" y="162.9" width="5.4" height="17.1" rx="2.7" fill="rgb(198,202,136)"/><rect x="548.0" y="174.0" width="5.4" height="6.0" rx="2.7" fill="rgb(196,203,137)"/><rect x="556.7" y="174.0" width="5.4" height="6.0" rx="2.7" fill="rgb(193,203,139)"/><rect x="565.3" y="174.0" width="5.4" height="6.0" rx="2.7" fill="rgb(191,204,140)"/><rect x="574.0" y="174.0" width="5.4" height="6.0" rx="2.7" fill="rgb(188,205,141)"/><rect x="582.7" y="174.0" width="5.4" height="6.0" rx="2.7" fill="rgb(186,206,143)"/><rect x="591.3" y="174.0" width="5.4" height="6.0" rx="2.7" fill="rgb(183,207,144)"/><rect x="600.0" y="174.0" width="5.4" height="6.0" rx="2.7" fill="rgb(181,207,145)"/><rect x="608.7" y="174.0" width="5.4" height="6.0" rx="2.7" fill="rgb(178,208,146)"/><rect x="617.3" y="174.0" width="5.4" height="6.0" rx="2.7" fill="rgb(176,209,148)"/><rect x="626.0" y="174.0" width="5.4" height="6.0" rx="2.7" fill="rgb(173,210,149)"/><rect x="634.7" y="174.0" width="5.4" height="6.0" rx="2.7" fill="rgb(171,211,150)"/><rect x="643.3" y="174.0" width="5.4" height="6.0" rx="2.7" fill="rgb(168,211,152)"/><rect x="652.0" y="174.0" width="5.4" height="6.0" rx="2.7" fill="rgb(166,212,153)"/><rect x="660.7" y="174.0" width="5.4" height="6.0" rx="2.7" fill="rgb(164,213,154)"/><rect x="669.3" y="174.0" width="5.4" height="6.0" rx="2.7" fill="rgb(161,214,155)"/><rect x="678.0" y="174.0" width="5.4" height="6.0" rx="2.7" fill="rgb(159,215,157)"/><rect x="686.7" y="174.0" width="5.4" height="6.0" rx="2.7" fill="rgb(156,215,158)"/><rect x="695.3" y="174.0" width="5.4" height="6.0" rx="2.7" fill="rgb(154,216,159)"/><rect x="704.0" y="174.0" width="5.4" height="6.0" rx="2.7" fill="rgb(151,217,161)"/><rect x="712.7" y="174.0" width="5.4" height="6.0" rx="2.7" fill="rgb(149,218,162)"/><rect x="721.3" y="174.0" width="5.4" height="6.0" rx="2.7" fill="rgb(146,219,163)"/><rect x="730.0" y="174.0" width="5.4" height="6.0" rx="2.7" fill="rgb(144,219,164)"/><rect x="738.7" y="174.0" width="5.4" height="6.0" rx="2.7" fill="rgb(141,220,166)"/><rect x="747.3" y="171.4" width="5.4" height="8.6" rx="2.7" fill="rgb(139,221,167)"/><rect x="756.0" y="145.7" width="5.4" height="34.3" rx="2.7" fill="rgb(137,222,168)"/><rect x="764.7" y="154.3" width="5.4" height="25.7" rx="2.7" fill="rgb(134,223,170)"/><rect x="773.3" y="120.0" width="5.4" height="60.0" rx="2.7" fill="rgb(132,223,171)"/><rect x="782.0" y="171.4" width="5.4" height="8.6" rx="2.7" fill="rgb(129,224,172)"/><rect x="790.7" y="171.4" width="5.4" height="8.6" rx="2.7" fill="rgb(127,225,173)"/><rect x="799.3" y="60.0" width="5.4" height="120.0" rx="2.7" fill="rgb(124,226,175)"/><rect x="808.0" y="174.0" width="5.4" height="6.0" rx="2.7" fill="rgb(122,227,176)"/><rect x="816.7" y="154.3" width="5.4" height="25.7" rx="2.7" fill="rgb(119,227,177)"/><rect x="825.3" y="60.0" width="5.4" height="120.0" rx="2.7" fill="rgb(117,228,179)"/><rect x="834.0" y="128.6" width="5.4" height="51.4" rx="2.7" fill="rgb(114,229,180)"/><rect x="842.7" y="154.3" width="5.4" height="25.7" rx="2.7" fill="rgb(112,230,181)"/><rect x="851.3" y="120.0" width="5.4" height="60.0" rx="2.7" fill="rgb(110,231,183)"/>

  <text x="860" y="204" text-anchor="end" font-family="'Segoe UI', sans-serif" font-size="11" fill="#8A7FA3">72 commits &#183; last 60 days</text>
</svg>